<?xml version="1.0" encoding="UTF-8"?><svg xmlns="http://www.w3.org/2000/svg" xmlns:xlink="http://www.w3.org/1999/xlink" width="375" zoomAndPan="magnify" viewBox="0 0 375 374.999991" height="374.999991" preserveAspectRatio="xMidYMid meet" version="1.0"><defs><clipPath id="clip-0"><path d="M 129 112.5 L 251 112.5 L 251 217 L 129 217 Z M 129 112.5 " clip-rule="nonzero"/></clipPath><clipPath id="clip-1"><path d="M 121.363281 113 L 236 113 L 236 227 L 121.363281 227 Z M 121.363281 113 " clip-rule="nonzero"/></clipPath><clipPath id="clip-2"><path d="M 125 117 L 253.363281 117 L 253.363281 226 L 125 226 Z M 125 117 " clip-rule="nonzero"/></clipPath><clipPath id="clip-3"><path d="M 128 119 L 252 119 L 252 262.5 L 128 262.5 Z M 128 119 " clip-rule="nonzero"/></clipPath></defs><rect x="-37.5" width="450" fill="rgb(100%, 100%, 100%)" y="-37.499999" height="449.999989" fill-opacity="1"/><rect x="-37.5" width="450" fill="rgb(100%, 100%, 100%)" y="-37.499999" height="449.999989" fill-opacity="1"/><rect x="-37.5" width="450" fill="rgb(12.939453%, 14.509583%, 16.079712%)" y="-37.499999" height="449.999989" fill-opacity="1"/><g clip-path="url(#clip-0)"><path fill="rgb(56.469727%, 72.158813%, 11.759949%)" d="M 156.386719 176.246094 C 158.667969 176.929688 160.292969 177.539062 160.292969 177.539062 C 160.292969 177.539062 160.074219 177.785156 159.640625 178.195312 C 159.21875 178.601562 158.523438 179.183594 157.78125 179.855469 C 157.011719 180.527344 156.027344 181.308594 154.898438 182.085938 C 153.816406 182.855469 152.546875 183.625 151.085938 184.21875 C 148.171875 185.425781 145.023438 185.527344 142.554688 185.0625 C 141.320312 184.84375 140.265625 184.507812 139.515625 184.21875 C 138.777344 183.929688 138.367188 183.691406 138.367188 183.691406 C 138.367188 183.691406 138.550781 183.207031 138.917969 182.464844 C 139.304688 181.726562 139.808594 180.734375 140.636719 179.730469 C 141.457031 178.726562 142.476562 177.71875 143.667969 176.921875 C 144.882812 176.121094 146.339844 175.53125 147.882812 175.277344 C 150.992188 174.792969 154.074219 175.597656 156.386719 176.246094 Z M 208.3125 116.683594 C 207.414062 114.347656 206.109375 112.609375 206.109375 112.609375 C 206.109375 112.609375 205.617188 112.691406 204.867188 112.914062 C 204.109375 113.171875 203.089844 113.582031 202.058594 114.164062 C 199.980469 115.324219 197.9375 117.207031 197.421875 119.839844 C 197.007812 121.925781 197.507812 124.15625 198.125 126.066406 C 198.753906 127.980469 199.511719 129.570312 199.949219 130.429688 C 199.949219 129.832031 200.378906 129.292969 201.039062 128.898438 C 201.699219 128.5 202.613281 128.164062 203.585938 127.796875 C 205.53125 127.050781 207.792969 126.234375 208.582031 124.449219 C 209.109375 123.222656 209.292969 121.847656 209.207031 120.492188 C 209.121094 119.167969 208.765625 117.851562 208.3125 116.683594 Z M 143.597656 141.996094 C 142.601562 141.960938 140.769531 141.847656 138.710938 141.320312 C 136.660156 140.789062 134.378906 139.828125 132.546875 137.914062 C 132.546875 137.914062 133.550781 138.691406 135.472656 139.417969 C 137.390625 140.15625 140.230469 140.785156 143.8125 140.851562 C 143.632812 140.46875 143.386719 139.980469 143.074219 139.4375 C 142.804688 138.902344 142.480469 138.308594 142.085938 137.707031 C 141.289062 136.511719 140.214844 135.269531 138.753906 134.527344 C 136.796875 133.527344 134.476562 133.707031 132.609375 134.28125 C 130.746094 134.84375 129.359375 135.753906 129.359375 135.753906 C 129.359375 135.753906 129.414062 136.171875 129.566406 136.820312 C 129.75 137.472656 130.085938 138.359375 130.542969 139.273438 C 131 140.1875 131.601562 141.125 132.351562 141.902344 C 133.082031 142.683594 134.089844 143.3125 135.144531 143.632812 C 136.84375 144.144531 138.589844 143.847656 140.074219 143.398438 C 141.554688 142.949219 142.902344 142.351562 143.597656 141.996094 Z M 247.710938 159.046875 C 246.945312 158.441406 246.070312 157.851562 245.109375 157.453125 C 244.109375 157.0625 243.054688 156.851562 242.019531 156.933594 C 239.945312 157.113281 238.296875 158.378906 237.125 159.496094 C 235.980469 160.613281 235.230469 161.652344 235.230469 161.652344 C 235.230469 161.652344 236.136719 162.550781 237.578125 163.523438 C 238.292969 164.011719 239.164062 164.515625 240.082031 164.925781 C 240.972656 165.347656 241.949219 165.671875 242.980469 165.742188 C 245.039062 165.890625 246.890625 164.9375 248.199219 163.835938 C 248.855469 163.292969 249.390625 162.71875 249.726562 162.285156 C 250.0625 161.855469 250.238281 161.558594 250.238281 161.558594 C 250.238281 161.558594 249.230469 160.261719 247.710938 159.046875 Z M 234.238281 187.03125 C 235.246094 186.253906 236.128906 185.449219 236.632812 184.816406 C 237.140625 184.183594 237.417969 183.753906 237.417969 183.753906 C 237.417969 183.753906 235.972656 182.421875 233.714844 181.394531 C 231.460938 180.332031 228.40625 179.660156 225.257812 180.105469 C 223.683594 180.320312 222.242188 180.753906 220.980469 181.226562 C 220.347656 181.464844 219.757812 181.714844 219.21875 181.964844 C 218.957031 182.089844 218.699219 182.214844 218.445312 182.335938 C 218.183594 182.457031 217.929688 182.574219 217.679688 182.6875 C 215.742188 183.605469 214.683594 184.351562 214.683594 184.351562 C 214.683594 184.351562 215.050781 184.597656 215.652344 185 C 216.25 185.398438 217.113281 185.957031 218.160156 186.574219 C 220.269531 187.785156 223.042969 189.3125 226.191406 189.601562 C 227.753906 189.730469 229.257812 189.5 230.65625 189.023438 C 232.019531 188.539062 233.210938 187.804688 234.238281 187.03125 Z M 238.5 210.046875 C 237.066406 208.121094 234.429688 207.375 232.015625 207.609375 C 230.601562 207.738281 229.117188 208.144531 227.957031 207.515625 C 228.636719 207.859375 228.746094 210.257812 228.996094 211.023438 C 229.464844 212.367188 230.136719 213.636719 231.175781 214.542969 C 232.65625 215.84375 234.761719 216.1875 236.492188 216.0625 C 237.359375 216.011719 238.144531 215.863281 238.710938 215.726562 C 239.277344 215.589844 239.617188 215.453125 239.617188 215.453125 C 239.78125 215.390625 239.625 214.105469 239.347656 212.828125 C 239.074219 211.542969 238.640625 210.242188 238.5 210.046875 Z M 238.5 210.046875 " fill-opacity="1" fill-rule="nonzero"/></g><g clip-path="url(#clip-1)"><path fill="rgb(17.649841%, 59.21936%, 79.60968%)" d="M 143.171875 203.34375 C 144.820312 203.921875 145.933594 204.566406 145.933594 204.566406 C 145.933594 204.566406 145.457031 205.757812 144.613281 207.125 C 143.746094 208.496094 142.453125 210.132812 140.488281 210.804688 C 139.507812 211.140625 138.425781 211.195312 137.378906 211.050781 C 136.351562 210.898438 135.34375 210.550781 134.449219 210.152344 C 133.558594 209.753906 132.785156 209.304688 132.238281 208.953125 C 131.710938 208.589844 131.410156 208.332031 131.410156 208.332031 C 131.410156 208.332031 131.84375 206.992188 132.832031 205.621094 C 133.816406 204.246094 135.367188 202.875 137.414062 202.507812 C 139.476562 202.136719 141.542969 202.765625 143.171875 203.34375 Z M 138.050781 172.449219 C 138.773438 172.039062 139.367188 171.667969 139.78125 171.402344 C 138.558594 171.546875 137.652344 169.957031 136.660156 168.089844 C 135.738281 166.257812 134.695312 164.117188 132.777344 163.539062 C 130.207031 162.769531 127.34375 163.554688 125.097656 164.75 C 123.980469 165.335938 123.003906 166 122.378906 166.539062 C 121.742188 167.070312 121.363281 167.449219 121.363281 167.449219 C 121.363281 167.449219 121.984375 169.386719 123.339844 171.292969 C 124.777344 173.222656 126.921875 175.035156 129.59375 175.222656 C 131.714844 175.378906 133.84375 174.597656 135.640625 173.746094 C 136.542969 173.316406 137.339844 172.859375 138.050781 172.449219 Z M 178.867188 133.570312 C 178.097656 132.792969 177.320312 132.183594 176.738281 131.785156 C 176.164062 131.421875 175.785156 131.242188 175.785156 131.242188 C 175.785156 131.242188 174.832031 132.707031 174.246094 134.785156 C 173.625 136.824219 173.527344 139.667969 174.535156 142.253906 C 175.550781 144.867188 177.269531 146.8125 178.609375 148.386719 C 179.953125 149.90625 180.921875 150.777344 180.921875 150.777344 C 180.921875 150.777344 181.019531 150.449219 181.167969 149.863281 C 181.324219 149.3125 181.539062 148.535156 181.753906 147.566406 C 182.164062 145.628906 182.675781 142.941406 182.277344 140.179688 C 181.882812 137.414062 180.429688 135.128906 178.867188 133.570312 Z M 219.191406 129.984375 C 219.742188 129.164062 220.042969 128.226562 220.164062 127.261719 C 220.292969 126.292969 220.222656 125.332031 220.046875 124.496094 C 219.714844 122.804688 219.039062 121.492188 219.039062 121.492188 C 218.953125 121.335938 217.707031 121.640625 216.484375 122.066406 C 215.265625 122.460938 214.023438 123.074219 213.84375 123.246094 C 212.96875 124.085938 212.4375 125.183594 212.1875 126.363281 C 211.9375 127.546875 211.988281 128.761719 212.230469 130.003906 C 212.527344 131.402344 213.101562 132.847656 212.628906 134.082031 C 212.878906 133.363281 215.265625 132.914062 216 132.558594 C 217.257812 131.953125 218.429688 131.125 219.191406 129.984375 Z M 194.300781 114.980469 C 193.882812 113.953125 193.300781 113.238281 193.300781 113.238281 C 193.300781 113.238281 192.300781 113.527344 191.214844 114.1875 C 190.125 114.898438 188.964844 115.941406 188.574219 117.242188 C 188.179688 118.539062 188.582031 119.847656 189.027344 120.828125 C 189.480469 121.808594 189.996094 122.464844 189.996094 122.464844 C 189.996094 122.464844 190.207031 122.367188 190.539062 122.179688 C 190.871094 121.976562 191.320312 121.742188 191.808594 121.425781 C 192.785156 120.792969 193.925781 119.851562 194.445312 118.597656 C 194.96875 117.34375 194.726562 116.007812 194.300781 114.980469 Z M 235.070312 171.011719 C 234.929688 170.890625 234.703125 170.722656 234.398438 170.53125 C 233.804688 170.140625 232.957031 169.65625 231.949219 169.238281 C 229.921875 168.382812 227.273438 167.902344 224.570312 168.585938 C 221.875 169.269531 219.578125 170.773438 217.933594 171.890625 C 217.117188 172.460938 216.464844 172.957031 216.023438 173.3125 C 215.574219 173.667969 215.300781 173.886719 215.300781 173.886719 C 215.300781 173.886719 216.464844 174.445312 218.367188 175.113281 C 219.3125 175.449219 220.453125 175.804688 221.6875 176.089844 C 222.882812 176.375 224.207031 176.585938 225.601562 176.550781 C 226.992188 176.519531 228.320312 176.226562 229.53125 175.753906 C 230.707031 175.292969 231.726562 174.652344 232.585938 173.980469 C 234.292969 172.644531 235.289062 171.203125 235.289062 171.203125 C 235.289062 171.203125 235.214844 171.136719 235.070312 171.011719 Z M 224.855469 195.347656 C 224.285156 194.34375 223.527344 193.410156 222.542969 192.640625 C 220.554688 191.101562 218.09375 190.441406 216.175781 190 C 214.253906 189.578125 212.882812 189.425781 212.882812 189.425781 C 212.882812 189.425781 212.957031 189.691406 213.085938 190.125 C 213.214844 190.554688 213.457031 191.191406 213.761719 191.941406 C 214.390625 193.429688 215.316406 195.453125 217 197.324219 C 218.660156 199.183594 220.886719 200.433594 222.785156 201.070312 C 224.652344 201.710938 226.171875 201.777344 226.171875 201.777344 C 226.171875 201.777344 226.21875 201.40625 226.222656 200.785156 C 226.207031 200.160156 226.148438 199.292969 225.960938 198.347656 C 225.742188 197.382812 225.40625 196.339844 224.855469 195.347656 Z M 200.460938 155.609375 C 200.296875 155.273438 197.421875 156.261719 197.25 156.378906 C 196.058594 156.984375 195.066406 157.910156 194.679688 159.28125 C 194.238281 160.851562 194.617188 162.675781 194.648438 164.476562 C 194.671875 164.882812 194.707031 166.320312 194.253906 166.402344 C 194.859375 166.28125 195.949219 166.035156 197.117188 165.570312 C 198.285156 165.097656 199.511719 164.429688 200.324219 163.300781 C 201.34375 161.890625 201.421875 160 201.191406 158.417969 C 200.96875 156.84375 200.460938 155.609375 200.460938 155.609375 Z M 158.703125 218.863281 C 157.5625 221.195312 157.519531 223.921875 157.886719 226.484375 C 159.121094 225.75 160.375 224.992188 161.359375 223.941406 C 162.675781 222.539062 163.421875 220.699219 163.96875 218.859375 C 164.351562 217.570312 164.652344 216.253906 164.871094 214.925781 C 162.289062 214.710938 159.84375 216.535156 158.703125 218.863281 Z M 158.703125 218.863281 " fill-opacity="1" fill-rule="nonzero"/></g><g clip-path="url(#clip-2)"><path fill="rgb(92.939758%, 22.349548%, 39.219666%)" d="M 131.414062 192.753906 C 133.320312 191.679688 136.210938 190.664062 139.972656 190.285156 C 139.847656 190.769531 139.632812 191.40625 139.421875 192.097656 C 139.214844 192.789062 138.945312 193.558594 138.605469 194.335938 C 138.261719 195.121094 137.847656 195.917969 137.339844 196.652344 C 136.859375 197.375 136.285156 198.035156 135.578125 198.550781 C 133.699219 199.945312 131.160156 199.9375 129.113281 199.378906 C 127.089844 198.832031 125.519531 197.808594 125.519531 197.808594 C 125.519531 197.808594 125.507812 195.699219 126.25 193.339844 C 126.613281 192.167969 127.066406 190.957031 127.792969 189.914062 C 128.515625 188.871094 129.414062 188.015625 130.484375 187.53125 C 132.1875 186.757812 134.074219 186.980469 135.714844 187.410156 C 136.535156 187.628906 137.292969 187.90625 137.945312 188.171875 C 138.613281 188.4375 139.179688 188.691406 139.582031 188.878906 C 138.539062 189.007812 136.628906 189.300781 134.542969 190.125 C 132.464844 190.953125 130.207031 192.332031 128.5625 194.863281 C 128.558594 194.863281 129.503906 193.8125 131.414062 192.753906 Z M 152.769531 216.644531 C 152.214844 216.789062 151.265625 217.023438 150.238281 217.464844 C 149.214844 217.90625 148.121094 218.53125 147.421875 219.511719 C 146.550781 220.734375 146.46875 222.382812 146.753906 223.65625 C 147.019531 224.941406 147.527344 225.929688 147.527344 225.929688 C 147.597656 226.058594 148.269531 225.910156 148.941406 225.695312 C 149.621094 225.472656 150.292969 225.191406 150.378906 225.144531 C 151.4375 224.570312 152.300781 223.742188 152.605469 222.582031 C 152.785156 221.914062 152.757812 221.222656 152.710938 220.476562 C 152.660156 219.730469 152.546875 218.976562 152.484375 218.25 C 152.453125 217.917969 152.363281 216.742188 152.769531 216.644531 Z M 156.71875 149.625 C 155.242188 148.367188 153.617188 147.535156 151.945312 147.0625 C 150.296875 146.597656 148.53125 146.441406 147.042969 146.589844 C 144.070312 146.867188 141.742188 147.957031 141.742188 147.957031 C 141.742188 147.957031 141.820312 148.613281 142.171875 149.6875 C 142.503906 150.75 143.039062 152.175781 143.828125 153.640625 C 145.339844 156.574219 148.246094 159.617188 151.8125 161.085938 C 153.144531 161.648438 154.484375 161.726562 155.75 161.632812 C 157.070312 161.5625 158.371094 161.339844 159.535156 161.144531 C 160.121094 161.050781 160.675781 160.960938 161.199219 160.90625 C 161.734375 160.859375 162.28125 160.867188 162.761719 160.90625 C 163.734375 160.992188 164.546875 161.273438 165.191406 161.867188 C 164.550781 160.757812 163.402344 158.785156 162.117188 156.570312 C 160.742188 154.308594 159.050781 151.628906 156.71875 149.625 Z M 166.894531 119.292969 C 165.667969 118.164062 164.402344 117.585938 164.402344 117.585938 C 164.402344 117.585938 163.230469 118.714844 162.203125 120.347656 C 161.183594 122.011719 160.414062 124.292969 160.832031 126.308594 C 161.257812 128.335938 162.71875 129.832031 163.976562 130.875 C 165.246094 131.910156 166.335938 132.472656 166.335938 132.472656 C 166.335938 132.472656 166.527344 132.203125 166.808594 131.730469 C 167.101562 131.285156 167.5 130.667969 167.898438 129.902344 C 168.6875 128.382812 169.527344 126.304688 169.414062 124.21875 C 169.308594 122.171875 168.125 120.40625 166.894531 119.292969 Z M 211.863281 154.488281 C 214.296875 153.386719 217.1875 152.007812 219.445312 149.949219 C 222.335938 147.34375 223.457031 143.847656 223.617188 140.734375 C 223.738281 139.164062 223.492188 137.875 223.308594 136.890625 C 223.113281 135.917969 222.90625 135.316406 222.90625 135.316406 C 222.90625 135.316406 222.222656 135.339844 221.160156 135.5 C 220.117188 135.632812 218.589844 136.050781 217.039062 136.660156 C 215.476562 137.285156 213.855469 138.160156 212.410156 139.324219 C 210.96875 140.464844 209.660156 141.96875 208.695312 143.640625 C 207.316406 146.101562 207.5625 149.019531 207.675781 151.316406 C 207.734375 153.746094 207.585938 155.753906 206.246094 156.871094 C 206.796875 156.644531 207.644531 156.253906 208.574219 155.882812 C 209.515625 155.5 210.640625 155.03125 211.863281 154.488281 Z M 250.238281 170.828125 C 248.398438 169.777344 246.015625 169.136719 243.820312 170.027344 C 242.175781 170.691406 240.855469 172.035156 239.824219 173.375 C 239.308594 174.050781 238.878906 174.726562 238.507812 175.347656 C 238.089844 175.96875 237.75 176.527344 237.5 176.96875 C 241.238281 177.53125 244.289062 177.257812 246.402344 176.691406 C 248.519531 176.140625 249.695312 175.355469 249.695312 175.355469 C 247.472656 177.402344 244.941406 178.179688 242.71875 178.472656 C 240.496094 178.757812 238.574219 178.566406 237.53125 178.433594 C 238.195312 178.992188 239.492188 179.980469 240.960938 180.8125 C 242.425781 181.632812 244.1875 182.3125 246.039062 181.988281 C 247.183594 181.78125 248.339844 181.179688 249.226562 180.339844 C 250.136719 179.507812 250.921875 178.449219 251.550781 177.398438 C 252.179688 176.347656 252.671875 175.304688 252.972656 174.527344 C 253.238281 173.75 253.367188 173.242188 253.367188 173.242188 C 253.367188 173.242188 252.078125 171.859375 250.238281 170.828125 Z M 218.941406 202.390625 C 217.789062 201.519531 216.515625 201.113281 215.222656 200.859375 C 213.949219 200.628906 212.65625 200.542969 211.46875 200.433594 C 209.078125 200.222656 207.105469 199.828125 206.152344 198.347656 C 206.484375 199.519531 207.046875 201.664062 207.816406 204.238281 C 208.199219 205.511719 208.652344 206.902344 209.21875 208.289062 C 209.777344 209.660156 210.453125 211.042969 211.347656 212.296875 C 212.472656 213.875 213.863281 215.105469 215.355469 215.960938 C 216.855469 216.828125 218.484375 217.359375 219.972656 217.597656 C 221.480469 217.867188 222.84375 217.851562 223.835938 217.785156 C 224.84375 217.726562 225.445312 217.582031 225.445312 217.582031 C 225.445312 217.582031 225.691406 214.832031 224.84375 211.582031 C 224.03125 208.304688 222.0625 204.714844 218.941406 202.390625 Z M 173.957031 156.789062 C 172.488281 158.742188 172.078125 161.714844 172.933594 163.976562 C 173.789062 166.238281 175.828125 167.855469 177.410156 169.886719 C 178.429688 167.652344 179.148438 165.257812 178.757812 162.839844 C 178.367188 160.429688 176.699219 157.984375 173.957031 156.789062 Z M 173.957031 156.789062 " fill-opacity="1" fill-rule="nonzero"/></g><path fill="rgb(100%, 61.569214%, 16.079712%)" d="M 163.4375 203.664062 C 165.679688 201.21875 167.328125 198.921875 168.222656 197.695312 C 167.988281 198.691406 167.523438 200.578125 166.792969 202.828125 C 166.097656 205 165.148438 207.570312 163.363281 209.640625 C 162.238281 210.9375 160.847656 211.894531 159.320312 212.535156 C 157.804688 213.179688 156.230469 213.417969 154.722656 213.503906 C 153.203125 213.605469 151.886719 213.402344 150.910156 213.222656 C 149.933594 213.039062 149.324219 212.855469 149.324219 212.855469 C 149.324219 212.855469 149.316406 212.707031 149.304688 212.433594 C 149.289062 212.167969 149.296875 211.765625 149.335938 211.273438 C 149.40625 210.289062 149.578125 208.960938 149.980469 207.566406 C 150.359375 206.183594 151.0625 204.660156 152.003906 203.332031 C 152.945312 201.996094 154.164062 200.828125 155.640625 199.941406 C 156.742188 199.277344 157.90625 198.816406 159.039062 198.460938 C 160.171875 198.113281 161.265625 197.882812 162.332031 197.664062 C 163.386719 197.460938 164.347656 197.320312 165.167969 197.21875 C 165.984375 197.113281 166.707031 197.019531 167.273438 196.945312 C 164.011719 201.363281 161.042969 204.824219 158.648438 206.921875 C 156.28125 209.046875 154.554688 209.898438 154.554688 209.898438 C 158.277344 208.699219 161.183594 206.082031 163.4375 203.664062 Z M 160.15625 190.421875 C 161.503906 188.886719 162.265625 187.808594 162.265625 187.808594 C 162.265625 187.808594 161.929688 187.746094 161.335938 187.671875 C 160.757812 187.589844 159.960938 187.46875 158.964844 187.378906 C 157.972656 187.285156 156.800781 187.210938 155.53125 187.238281 C 154.265625 187.265625 152.953125 187.382812 151.605469 187.761719 C 150.269531 188.136719 149.035156 188.753906 148.011719 189.496094 C 146.988281 190.238281 146.136719 191.117188 145.46875 191.980469 C 144.796875 192.839844 144.289062 193.6875 143.976562 194.308594 C 143.683594 194.925781 143.546875 195.328125 143.546875 195.328125 C 143.546875 195.328125 145.097656 196.101562 147.214844 196.4375 C 149.410156 196.753906 152.15625 196.546875 154.601562 195.226562 C 157.058594 193.894531 158.867188 191.898438 160.15625 190.421875 Z M 144.960938 163.460938 C 144.960938 163.460938 145.011719 163.839844 145.160156 164.4375 C 145.320312 165.042969 145.53125 165.847656 145.960938 166.726562 C 146.894531 168.515625 148.308594 170.421875 150.671875 171.441406 C 152.992188 172.453125 155.539062 172.492188 157.476562 172.449219 C 158.445312 172.417969 159.265625 172.351562 159.871094 172.300781 C 160.457031 172.238281 160.816406 172.199219 160.816406 172.199219 C 160.816406 172.199219 160.359375 171.273438 159.339844 169.949219 C 158.449219 168.671875 157.023438 166.917969 154.914062 165.507812 C 152.800781 164.097656 150.359375 163.445312 148.394531 163.304688 C 146.433594 163.152344 144.960938 163.460938 144.960938 163.460938 Z M 128.703125 178.335938 C 127.398438 177.972656 126.101562 178.378906 125.136719 178.929688 C 124.171875 179.476562 123.539062 180.144531 123.539062 180.144531 C 123.539062 180.144531 123.644531 180.382812 123.84375 180.75 C 124.035156 181.117188 124.367188 181.605469 124.777344 182.101562 C 125.597656 183.105469 126.757812 184.125 128.089844 184.355469 C 129.417969 184.582031 130.671875 184.023438 131.59375 183.457031 C 132.519531 182.886719 133.113281 182.285156 133.113281 182.285156 C 133.113281 182.285156 132.621094 181.503906 131.835938 180.609375 C 131.082031 179.722656 130.011719 178.699219 128.703125 178.335938 Z M 159.058594 149.886719 C 160.878906 151.910156 163.332031 153.195312 165.429688 154.1875 C 166.484375 154.675781 167.460938 155.074219 168.277344 155.402344 C 169.109375 155.738281 169.820312 156.023438 170.332031 156.230469 C 169.214844 155.179688 167.125 153.234375 164.980469 150.703125 C 162.855469 148.15625 160.683594 145.011719 159.917969 141.117188 C 159.917969 141.117188 160.550781 142.945312 162.371094 145.566406 C 164.15625 148.210938 167.210938 151.589844 171.171875 155.347656 C 171.125 154.179688 171.242188 152.53125 171.078125 150.355469 C 170.890625 148.167969 170.683594 145.796875 169.644531 143.421875 C 168.949219 141.84375 167.933594 140.484375 166.71875 139.371094 C 166.117188 138.816406 165.460938 138.316406 164.789062 137.886719 C 164.132812 137.480469 163.453125 137.140625 162.789062 136.859375 C 161.453125 136.289062 160.15625 135.949219 159.195312 135.761719 C 158.710938 135.664062 158.3125 135.605469 158.035156 135.566406 C 157.757812 135.523438 157.609375 135.523438 157.609375 135.523438 C 157.609375 135.523438 156.589844 137.902344 156.300781 140.816406 C 156.171875 142.292969 156.308594 143.988281 156.730469 145.546875 C 157.160156 147.125 157.914062 148.609375 159.058594 149.886719 Z M 178.105469 116.40625 C 179.246094 117.308594 180.09375 118.429688 180.726562 119.566406 C 181.359375 120.695312 181.773438 121.851562 182.058594 122.941406 C 182.617188 125.121094 182.664062 127.054688 182.660156 128.105469 C 183.136719 127.375 183.957031 126.03125 184.597656 124.421875 C 185.226562 122.816406 185.679688 120.945312 185.128906 119.175781 C 184.445312 116.941406 182.152344 115.300781 179.894531 114.269531 C 178.765625 113.71875 177.691406 113.46875 176.886719 113.277344 C 176.082031 113.09375 175.558594 113.019531 175.558594 113.019531 C 175.558594 113.019531 174.347656 114.441406 173.550781 116.378906 C 172.742188 118.332031 172.429688 120.882812 173.574219 122.914062 C 174 123.683594 174.578125 124.316406 175.238281 124.898438 C 175.90625 125.496094 176.640625 126.011719 177.378906 126.457031 C 178.851562 127.351562 180.289062 127.894531 181.21875 128.285156 C 181.3125 124.511719 180.660156 121.507812 179.835938 119.464844 C 179.019531 117.421875 178.105469 116.40625 178.105469 116.40625 Z M 191.589844 130.289062 C 190.699219 129.308594 189.785156 128.675781 189.097656 128.230469 C 188.410156 127.789062 187.949219 127.558594 187.949219 127.558594 C 187.949219 127.558594 186.808594 129.136719 186.070312 131.488281 C 185.300781 133.886719 185.019531 137.085938 185.847656 140.089844 C 186.253906 141.566406 186.859375 142.984375 187.484375 144.203125 C 188.117188 145.421875 188.765625 146.460938 189.335938 147.292969 C 189.90625 148.148438 190.398438 148.914062 190.753906 149.378906 C 191.105469 149.859375 191.320312 150.109375 191.320312 150.109375 C 191.320312 150.109375 191.519531 149.714844 191.84375 149.0625 C 192.164062 148.398438 192.613281 147.433594 193.089844 146.355469 C 194.023438 144.15625 195.199219 141.207031 195.101562 138.035156 C 195.023438 134.785156 193.390625 132.183594 191.589844 130.289062 Z M 145.953125 135.640625 C 147.722656 136.363281 149.890625 136.128906 151.867188 136.183594 C 152.335938 136.207031 154 136.332031 154.050781 136.894531 C 153.96875 136.136719 153.785156 134.761719 153.355469 133.273438 C 152.921875 131.785156 152.246094 130.179688 151.027344 129.054688 C 149.492188 127.640625 147.316406 127.320312 145.472656 127.425781 C 145.015625 127.449219 144.578125 127.496094 144.183594 127.558594 C 143.800781 127.632812 143.460938 127.71875 143.171875 127.800781 C 142.597656 127.964844 142.25 128.105469 142.25 128.105469 C 141.851562 128.269531 142.722656 131.929688 142.839844 132.15625 C 143.433594 133.6875 144.40625 135.007812 145.953125 135.640625 Z M 231.835938 151.847656 C 230.90625 151.449219 229.609375 150.980469 228.164062 150.671875 C 227.441406 150.515625 226.679688 150.402344 225.902344 150.351562 C 225.117188 150.3125 224.273438 150.367188 223.464844 150.488281 C 221.832031 150.734375 220.253906 151.308594 218.84375 152.292969 C 216.613281 153.855469 215.054688 156.121094 213.847656 158.066406 C 213.546875 158.554688 213.273438 159.027344 213.015625 159.476562 C 212.75 159.933594 212.496094 160.371094 212.257812 160.777344 C 211.800781 161.582031 211.441406 162.242188 211.195312 162.710938 C 212.367188 161.734375 214.539062 159.902344 217.308594 158.085938 C 220.09375 156.285156 223.484375 154.5 227.484375 154.1875 C 227.484375 154.1875 225.578125 154.609375 222.753906 156.097656 C 219.902344 157.554688 216.207031 160.164062 211.996094 163.640625 C 213.03125 163.8125 214.785156 164.050781 216.96875 164.15625 C 219.011719 164.300781 221.507812 164.335938 223.972656 163.597656 C 227.28125 162.632812 229.804688 160.164062 231.351562 157.570312 C 232.78125 155.074219 233.238281 152.617188 233.238281 152.617188 C 233.238281 152.617188 232.710938 152.277344 231.835938 151.847656 Z M 227.4375 134.632812 C 227.527344 135.253906 227.640625 135.792969 227.730469 136.199219 C 230.503906 133.917969 232.335938 131.660156 233.382812 129.890625 C 234.441406 128.128906 234.746094 126.890625 234.746094 126.890625 C 234.5 129.53125 233.304688 131.703125 232.023438 133.398438 C 230.738281 135.09375 229.371094 136.316406 228.609375 136.964844 C 229.375 136.804688 230.800781 136.441406 232.246094 135.871094 C 233.683594 135.300781 235.234375 134.445312 236.253906 132.988281 C 236.878906 132.085938 237.285156 130.960938 237.371094 129.898438 C 237.472656 128.820312 237.363281 127.710938 237.160156 126.707031 C 236.953125 125.710938 236.660156 124.808594 236.402344 124.179688 C 236.121094 123.578125 235.90625 123.214844 235.90625 123.214844 C 235.90625 123.214844 234.253906 123.359375 232.445312 124.082031 C 230.625 124.789062 228.691406 126.09375 227.78125 128.09375 C 227.097656 129.585938 227.023438 131.222656 227.136719 132.65625 C 227.203125 133.382812 227.316406 134.042969 227.4375 134.632812 Z M 186.984375 154.242188 C 185.808594 153.269531 184.609375 152.761719 184.609375 152.761719 C 184.609375 152.761719 184.363281 152.980469 184.011719 153.363281 C 183.664062 153.765625 183.230469 154.371094 182.839844 155.066406 C 182.445312 155.765625 182.09375 156.566406 181.914062 157.390625 C 181.726562 158.207031 181.757812 159.140625 182.003906 159.96875 C 182.417969 161.296875 183.371094 162.308594 184.304688 163.082031 C 185.246094 163.855469 186.222656 164.46875 186.753906 164.773438 C 186.34375 164.105469 185.617188 162.859375 185.0625 161.289062 C 184.515625 159.714844 184.144531 157.808594 184.589844 155.777344 C 184.589844 155.777344 184.519531 156.777344 184.890625 158.34375 C 185.246094 159.917969 186.074219 162.042969 187.59375 164.410156 C 187.761719 164.128906 187.972656 163.753906 188.1875 163.3125 C 188.417969 162.90625 188.664062 162.4375 188.882812 161.914062 C 189.3125 160.871094 189.648438 159.632812 189.496094 158.355469 C 189.300781 156.648438 188.171875 155.210938 186.984375 154.242188 Z M 249.832031 202.359375 C 249.683594 201.574219 249.457031 200.527344 248.992188 199.425781 C 248.539062 198.328125 247.921875 197.203125 247.082031 196.253906 C 246.222656 195.304688 245.167969 194.535156 243.894531 194.109375 C 241.863281 193.4375 239.664062 193.683594 237.679688 194.058594 C 235.710938 194.453125 234.046875 195.015625 233.09375 195.328125 C 234.304688 195.480469 234.835938 197.261719 235.296875 199.292969 C 235.820312 201.332031 236.226562 203.628906 237.964844 204.667969 C 240.265625 206.042969 243.257812 205.984375 245.722656 205.363281 C 246.933594 205.054688 248.011719 204.628906 248.78125 204.277344 C 249.558594 203.929688 250.007812 203.652344 250.007812 203.652344 C 250.007812 203.652344 249.976562 203.144531 249.832031 202.359375 Z M 234.589844 141.003906 C 233.667969 142.664062 233.691406 144.800781 233.292969 146.832031 C 233.21875 147.292969 232.914062 148.910156 232.34375 148.902344 C 233.113281 148.910156 234.507812 148.882812 236.050781 148.636719 C 237.597656 148.375 239.257812 147.90625 240.527344 146.828125 C 242.113281 145.480469 242.664062 143.375 242.765625 141.542969 C 242.871094 139.71875 242.546875 138.214844 242.546875 138.214844 C 242.429688 137.800781 238.667969 138.246094 238.429688 138.332031 C 236.832031 138.742188 235.394531 139.550781 234.589844 141.003906 Z M 214.203125 218.441406 C 212.644531 220.863281 212.953125 224.332031 214.910156 226.4375 C 216.132812 227.75 217.824219 228.496094 219.464844 229.207031 C 218.917969 226.878906 219.632812 224.304688 218.675781 222.109375 C 217.878906 220.292969 216.070312 219.109375 214.203125 218.441406 Z M 205.710938 165.261719 C 203.804688 165.902344 202.296875 168.429688 200.949219 169.925781 C 202.972656 170.957031 206.125 171.894531 208.226562 171.035156 C 210.328125 170.175781 211.417969 167.582031 212.933594 165.894531 C 210.570312 165.867188 207.953125 164.507812 205.710938 165.261719 Z M 170.417969 166.578125 C 168.1875 165.269531 165.519531 164.71875 162.953125 165.042969 C 165.15625 169.660156 170.3125 172.683594 175.410156 172.347656 C 174.433594 169.949219 172.652344 167.886719 170.417969 166.578125 Z M 170.417969 166.578125 " fill-opacity="1" fill-rule="nonzero"/><g clip-path="url(#clip-3)"><path fill="rgb(2.749634%, 34.899902%, 24.308777%)" d="M 137.832031 159.242188 C 135.585938 160.074219 132.84375 159.996094 130.972656 158.480469 C 130.78125 158.324219 130.054688 157.179688 129.4375 155.992188 C 128.8125 154.8125 128.417969 153.636719 128.550781 153.53125 C 128.550781 153.53125 129.785156 152.707031 131.441406 152.175781 C 133.097656 151.628906 135.15625 151.414062 136.917969 152.3125 C 138.144531 152.933594 139.144531 154.007812 139.9375 155.203125 C 140.375 155.890625 141.078125 158.183594 141.816406 158.351562 C 140.558594 158.03125 139.105469 158.746094 137.832031 159.242188 Z M 197.25 151 C 197.679688 150.773438 198.28125 150.46875 198.96875 150.109375 C 199.664062 149.730469 200.484375 149.226562 201.34375 148.574219 C 202.203125 147.921875 203.113281 147.128906 203.90625 146.210938 C 205.53125 144.335938 206.496094 141.96875 206.902344 139.988281 C 207.113281 138.992188 207.183594 138.136719 207.199219 137.53125 C 207.214844 136.917969 207.179688 136.542969 207.179688 136.542969 C 207.179688 136.542969 205.632812 136.589844 203.804688 137.175781 C 202.90625 137.433594 201.875 138 200.960938 138.671875 C 200.039062 139.359375 199.203125 140.222656 198.558594 141.292969 C 197.285156 143.4375 196.925781 145.984375 196.726562 147.945312 C 196.546875 149.914062 196.566406 151.296875 196.566406 151.296875 C 196.566406 151.296875 196.820312 151.210938 197.25 151 Z M 247.566406 185.660156 C 246.316406 185.109375 244.984375 185.339844 243.96875 185.667969 C 243.457031 185.828125 243.03125 186.023438 242.722656 186.167969 C 242.402344 186.3125 242.214844 186.421875 242.214844 186.421875 C 242.214844 186.421875 242.449219 187.289062 242.976562 188.34375 C 243.5 189.390625 244.3125 190.644531 245.5 191.316406 C 246.683594 191.988281 248.03125 191.910156 249.09375 191.617188 C 250.152344 191.324219 250.921875 190.835938 250.921875 190.835938 C 250.921875 190.835938 250.726562 189.800781 250.214844 188.644531 C 249.738281 187.492188 248.820312 186.210938 247.566406 185.660156 Z M 154.605469 119.035156 C 153.546875 119.566406 152.988281 120.820312 153.015625 122.003906 C 153.046875 123.191406 153.574219 124.3125 154.230469 125.300781 C 155.34375 126.972656 156.859375 128.375 158.613281 129.355469 C 158.652344 127.421875 158.535156 125.464844 157.941406 123.625 C 157.34375 121.789062 156.230469 120.070312 154.605469 119.035156 Z M 251.316406 149.953125 C 248.171875 148.757812 244.511719 149.011719 241.5625 150.632812 C 241.003906 150.941406 240.40625 151.402344 240.394531 152.042969 C 244 153.644531 248.554688 152.773438 251.316406 149.953125 Z M 138.738281 213.285156 C 137.15625 213.75 135.488281 214.597656 134.957031 216.160156 C 138.640625 217.589844 143.234375 216.035156 145.304688 212.660156 C 143.101562 212.453125 140.859375 212.667969 138.738281 213.285156 Z M 187.453125 190.433594 C 191.773438 190.433594 195.277344 186.460938 195.277344 181.554688 C 195.277344 176.652344 191.773438 172.675781 187.453125 172.675781 C 183.128906 172.675781 179.625 176.652344 179.625 181.554688 C 179.625 186.460938 183.128906 190.433594 187.453125 190.433594 Z M 187.664062 208.730469 C 183.582031 195.582031 176.117188 182.441406 162.929688 172.484375 C 162.929688 172.484375 196.464844 216.332031 169.925781 262.390625 L 205.394531 262.390625 C 178.855469 216.332031 212.394531 172.484375 212.394531 172.484375 C 199.203125 182.4375 191.742188 195.578125 187.664062 208.730469 Z M 187.664062 208.730469 " fill-opacity="1" fill-rule="nonzero"/></g></svg>